<svg width="79" height="14" viewBox="0 0 79 14" fill="none" xmlns="http://www.w3.org/2000/svg">
<g clip-path="url(#clip0_63_67)">
<path d="M77.8287 4.68946L74.2556 4.10704L72.6586 0.48673C72.3724 -0.158583 71.5434 -0.166786 71.2548 0.48673L69.6578 4.10704L66.0847 4.68946C65.4439 4.79337 65.1871 5.67657 65.6518 6.18243L68.2368 8.99884L67.6254 12.9774C67.5154 13.6965 68.1928 14.2352 68.7602 13.8988L71.9567 12.0203L75.1532 13.8988C75.7205 14.2324 76.398 13.6965 76.2879 12.9774L75.6765 8.99884L78.2616 6.18243C78.7262 5.67657 78.4695 4.79337 77.8287 4.68946ZM74.417 8.53946L74.9966 12.3238L71.9567 10.5383L68.9167 12.3238L69.4964 8.53946L67.036 5.85978L70.4355 5.30743L71.9567 1.86212L73.4779 5.30743L76.8773 5.85978L74.417 8.53946Z" fill="#08074F" fill-opacity="0.61"/>
</g>
<g clip-path="url(#clip1_63_67)">
<path d="M56.5263 0.48676L54.9293 4.10707L51.3562 4.6895C50.7154 4.7934 50.4586 5.6766 50.9233 6.18246L53.5083 8.99887L52.8969 12.9774C52.7869 13.6965 53.4643 14.2352 54.0317 13.8989L57.2282 12.0204L60.4246 13.8989C60.992 14.2325 61.6695 13.6965 61.5594 12.9774L60.948 8.99887L63.5331 6.18246C63.9977 5.6766 63.7409 4.7934 63.1002 4.6895L59.5271 4.10707L57.9301 0.48676C57.6439 -0.158552 56.8149 -0.166755 56.5263 0.48676Z" fill="#E1A200" fill-opacity="0.73"/>
</g>
<g clip-path="url(#clip2_63_67)">
<path d="M23.0697 0.48676L21.4727 4.10707L17.8996 4.6895C17.2589 4.7934 17.0021 5.6766 17.4667 6.18246L20.0518 8.99887L19.4404 12.9774C19.3303 13.6965 20.0078 14.2352 20.5752 13.8989L23.7716 12.0204L26.9681 13.8989C27.5355 14.2325 28.2129 13.6965 28.1029 12.9774L27.4915 8.99887L30.0765 6.18246C30.5412 5.6766 30.2844 4.7934 29.6436 4.6895L26.0705 4.10707L24.4735 0.48676C24.1874 -0.158552 23.3583 -0.166755 23.0697 0.48676Z" fill="#E1A200" fill-opacity="0.73"/>
</g>
<g clip-path="url(#clip3_63_67)">
<path d="M6.34169 0.48676L4.74468 4.10707L1.17159 4.6895C0.530824 4.7934 0.274031 5.6766 0.738705 6.18246L3.32376 8.99887L2.71235 12.9774C2.60229 13.6965 3.27974 14.2352 3.84713 13.8989L7.0436 12.0204L10.2401 13.8989C10.8075 14.2325 11.4849 13.6965 11.3748 12.9774L10.7634 8.99887L13.3485 6.18246C13.8132 5.6766 13.5564 4.7934 12.9156 4.6895L9.34251 4.10707L7.7455 0.48676C7.45936 -0.158552 6.63028 -0.166755 6.34169 0.48676Z" fill="#E1A200" fill-opacity="0.73"/>
</g>
<g clip-path="url(#clip4_63_67)">
<path d="M40.3417 0.48676L38.7447 4.10707L35.1716 4.6895C34.5308 4.7934 34.274 5.6766 34.7387 6.18246L37.3238 8.99887L36.7123 12.9774C36.6023 13.6965 37.2797 14.2352 37.8471 13.8989L41.0436 12.0204L44.2401 13.8989C44.8075 14.2325 45.4849 13.6965 45.3748 12.9774L44.7634 8.99887L47.3485 6.18246C47.8132 5.6766 47.5564 4.7934 46.9156 4.6895L43.3425 4.10707L41.7455 0.48676C41.4594 -0.158552 40.6303 -0.166755 40.3417 0.48676Z" fill="#E1A200" fill-opacity="0.73"/>
</g>
<defs>
<clipPath id="clip0_63_67">
<rect width="14.087" height="14" fill="white" transform="translate(64.9131)"/>
</clipPath>
<clipPath id="clip1_63_67">
<rect width="14.087" height="14" fill="white" transform="translate(50.1846)"/>
</clipPath>
<clipPath id="clip2_63_67">
<rect width="14.087" height="14" fill="white" transform="translate(16.728)"/>
</clipPath>
<clipPath id="clip3_63_67">
<rect width="14.087" height="14" fill="white"/>
</clipPath>
<clipPath id="clip4_63_67">
<rect width="14.087" height="14" fill="white" transform="translate(34)"/>
</clipPath>
</defs>
</svg>
