<svg width="38" height="35" viewBox="0 0 38 35" fill="none" xmlns="http://www.w3.org/2000/svg">
<path d="M29.5323 29.6042L20.9329 21.4375C20.1651 22.0208 19.2822 22.4826 18.284 22.8229C17.2859 23.1632 16.2237 23.3333 15.0976 23.3333C12.308 23.3333 9.94722 22.4156 8.01543 20.58C6.08364 18.7444 5.11723 16.5025 5.11621 13.8542C5.11621 11.2049 6.08262 8.96292 8.01543 7.12833C9.94825 5.29375 12.309 4.37597 15.0976 4.375C17.8873 4.375 20.2481 5.29278 22.1798 7.12833C24.1116 8.96389 25.078 11.2058 25.0791 13.8542C25.0791 14.9236 24.8999 15.9323 24.5416 16.8802C24.1833 17.8281 23.697 18.6667 23.0828 19.3958L31.7206 27.599C32.0021 27.8663 32.1428 28.1944 32.1428 28.5833C32.1428 28.9722 31.9893 29.3125 31.6822 29.6042C31.4006 29.8715 31.0423 30.0052 30.6072 30.0052C30.1722 30.0052 29.8138 29.8715 29.5323 29.6042ZM15.0976 20.4167C17.0171 20.4167 18.649 19.7784 19.9931 18.5019C21.3373 17.2253 22.0089 15.6761 22.0079 13.8542C22.0079 12.0312 21.3358 10.4815 19.9916 9.205C18.6474 7.92847 17.0161 7.29069 15.0976 7.29167C13.1781 7.29167 11.5463 7.92993 10.2021 9.20646C8.85797 10.483 8.1864 12.0322 8.18742 13.8542C8.18742 15.6771 8.8595 17.2268 10.2037 18.5033C11.5478 19.7799 13.1792 20.4176 15.0976 20.4167Z" fill="#F0F4FF"/>
</svg>
