<svg width="32" height="33" viewBox="0 0 32 33" fill="none" xmlns="http://www.w3.org/2000/svg">
<path d="M2.8375 20.1049C3.7375 25.0464 4.4875 29.605 7.1 32.9926H2.125C0.95625 32.9926 0 31.8732 0 30.4887V2.50391C0 1.12676 0.95 0 2.125 0H5.73125C4.86875 0.927918 4.1 2.00312 3.425 3.21089C0.5875 8.36599 1.7375 14.0219 2.8375 20.1049ZM29.875 0H24.2375C25.575 1.57599 26.6875 3.64539 27.5312 6.19348L18.9625 8.35126C18.0312 6.21558 16.6 4.42602 13.8 5.11828C12.2625 5.50859 11.2375 6.53961 10.7812 7.66637C10.2312 9.04352 9.95625 10.5974 11.2937 17.9987C12.6125 25.3778 13.4 26.6666 14.3875 27.6608C15.1937 28.4782 16.475 28.9127 18.0312 28.5224C20.8125 27.8302 21.5125 25.5251 21.6187 23.1317L30.2062 20.9518C30.4062 26.2174 29.0375 30.1721 26.6187 33H29.875C31.0438 33 32 31.8806 32 30.4961V2.50391C32 1.11939 31.05 0 29.875 0Z" fill="#08074F"/>
</svg>
